<svg id="Layer_1" xmlns="http://www.w3.org/2000/svg" width="512" height="512" viewBox="0 0 512 512"><style>.st0{fill:#020202}</style><g id="Layer_6"><path class="st0" d="M438.6 298.7c-2.7 10.8-13.7 17.3-24.5 14.6-10.8-2.7-17.3-13.7-14.6-24.5 2.7-10.8 13.7-17.3 24.5-14.6 10.3 2.7 16.8 12.6 15 22.9-.2.5-.2 1-.4 1.6zm-14.2-65.4c-10.8 2.5-21.8-4.1-24.3-15.1-2.5-10.8 4.1-21.8 15-24.3 10.8-2.5 21.8 4.1 24.3 15.1.5 2.7.7 5.4.2 7.9-1.1 7.9-6.9 14.6-15.2 16.4zm0 0c-10.8 2.5-21.8-4.1-24.3-15.1-2.5-10.8 4.1-21.8 15-24.3 10.8-2.5 21.8 4.1 24.3 15.1.5 2.7.7 5.4.2 7.9-1.1 7.9-6.9 14.6-15.2 16.4z"/><path id="XMLID_7_" class="st0" d="M353.8 271.8c-11.2 0-20.2-9-20.2-20.2s9-20.2 20.2-20.2 20.2 9 20.2 20.2-9 20.2-20.2 20.2z"/><path id="XMLID_6_" class="st0" d="M251.5 304.4c-29.2 0-52.8-23.4-52.8-52.6 0-29.2 23.4-52.8 52.6-52.8 29.2 0 52.8 23.4 52.8 52.6.2 29.2-23.4 52.7-52.6 52.8z"/><path class="st0" d="M507.6 296.3c-1.8 11-12.4 18.4-23.4 16.4-11-1.8-18.4-12.4-16.4-23.4 1.8-11 12.4-18.4 23.4-16.4 10.4 1.8 17.7 11.3 16.8 21.6-.2.6-.4 1.1-.4 1.8zm-16.4-64.1c-11 1.8-21.4-5.6-23.2-16.6-1.8-11 5.6-21.4 16.6-23.2 11-1.8 21.4 5.6 23.2 16.6.2 1.8.4 3.4.2 5.2-.7 8.8-7.6 16.6-16.8 18zm-19.8 146.3c-5.6 9.7-17.8 13.2-27.6 7.6-9.7-5.6-13.2-17.8-7.6-27.6 5.6-9.7 17.8-13.2 27.6-7.6 7 4 10.8 11.7 10.1 19.3-.1 2.9-1 5.6-2.5 8.3zm-7.2-224.3c-9.7 5.4-22 2-27.6-7.7-5.4-9.7-2-22 7.7-27.6 9.7-5.4 22-2 27.6 7.7 2.2 3.8 2.9 7.7 2.5 11.7-.6 6.5-4.2 12.5-10.2 15.9z"/><path id="XMLID_1_" d="M252.2 504.4c-34 0-67-6.7-98.2-19.8-30.1-12.8-56.9-31-80.2-54-23.2-23.1-41.4-50.1-54-80.2C6.7 319.2 0 286.2 0 252.2s6.7-67 19.8-98.2c12.8-30.1 31-56.9 54-80.2 23.2-23.2 50.1-41.4 80.2-54C185.2 6.7 218.1 0 252.2 0c28.3 0 55.8 4.7 82.3 13.7 25.6 8.8 49.4 21.6 71 38.2 7.2 5.6 8.6 15.9 3.1 23.1-5.6 7.2-15.9 8.6-23.1 3.1-38.5-29.5-84.7-45-133.1-45-58.5 0-113.7 22.9-155.1 64.1-41.4 41.4-64.1 96.4-64.1 155.1 0 58.5 22.9 113.7 64.1 155.1 41.4 41.4 96.4 64.1 155.1 64.1 48.6 0 94.8-15.7 133.1-45 7.2-5.6 17.7-4.1 23.1 3.1 5.4 7.2 4.1 17.7-3.1 23.1-21.6 16.6-45.4 29.4-71 38.2-26.5 8.8-54.2 13.5-82.3 13.5z"/></g></svg>