<?xml version="1.0" encoding="UTF-8"?>
<svg width="123px" height="143px" viewBox="0 0 123 143" version="1.1" xmlns="http://www.w3.org/2000/svg" xmlns:xlink="http://www.w3.org/1999/xlink">
    <!-- Generator: Sketch 42 (36781) - http://www.bohemiancoding.com/sketch -->
    <title>bitbucket_rgb_blue</title>
    <desc>Created with Sketch.</desc>
    <defs></defs>
    <g id="Page-1" stroke="none" stroke-width="1" fill="none" fill-rule="evenodd">
        <g id="bitbucket_rgb_blue" fill-rule="nonzero" fill="#000000">
            <path d="M61.219,0.963 L61.219,0.965 L61.219,0.963 C27.544,0.963 0.047,10.016 0.047,21.257 C0.047,24.218 7.39,66.672 10.303,83.508 C11.609,91.059 31.121,102.129 61.203,102.129 L61.234,102.039 L61.234,102.129 C91.315,102.129 110.827,91.059 112.133,83.508 C115.046,66.672 122.389,24.218 122.389,21.257 C122.39,10.017 94.894,0.963 61.219,0.963 Z M61.219,88.49 C50.48,88.49 41.774,79.783 41.774,69.045 C41.774,58.305 50.48,49.6 61.219,49.6 C71.958,49.6 80.664,58.305 80.664,69.045 C80.664,79.783 71.958,88.49 61.219,88.49 Z M61.208,27.53 C39.572,27.495 22.039,23.736 22.046,19.132 C22.053,14.528 39.6,10.825 61.236,10.86 C82.872,10.894 100.405,14.653 100.398,19.258 C100.39,23.863 82.844,27.564 61.208,27.53 Z" id="Shape"></path>
            <path d="M105.185,100.382 C104.255,100.382 103.51,101.04 103.51,101.04 C103.51,101.04 88.446,112.969 61.22,112.97 C33.993,112.969 18.93,101.04 18.93,101.04 C18.93,101.04 18.184,100.382 17.255,100.382 C16.144,100.382 15.091,101.128 15.091,102.775 C15.091,102.949 15.108,103.123 15.14,103.293 C17.478,115.807 19.186,124.686 19.486,126.037 C21.527,135.242 39.534,142.188 61.219,142.189 L61.219,142.189 L61.22,142.189 L61.221,142.189 L61.221,142.189 C82.907,142.188 100.913,135.242 102.954,126.037 C103.254,124.685 104.962,115.807 107.3,103.293 C107.332,103.123 107.349,102.949 107.349,102.775 C107.349,101.128 106.295,100.382 105.185,100.382 Z" id="Shape"></path>
            <circle id="Oval" cx="61.2" cy="69.039" r="9.745"></circle>
        </g>
    </g>
</svg>